<svg width="19" height="38" viewBox="0 0 19 38" fill="none" xmlns="http://www.w3.org/2000/svg">
<g clip-path="url(#clip0)">
<path d="M18.6202 3.9778H0.38383C0.174872 3.9778 0.00390625 3.80684 0.00390625 3.59788V0.379924C0.00390625 0.170966 0.174872 0 0.38383 0H18.6202C18.8291 0 19.0001 0.170966 19.0001 0.379924V3.59788C19.0001 3.80684 18.8291 3.9778 18.6202 3.9778ZM0.763754 3.21796H18.2403V0.759848H0.763754V3.21796Z" fill="black"/>
<path d="M15.0105 30.1508H3.99275C3.79899 30.1508 3.63942 30.0103 3.61283 29.8203L0.00354964 3.64733C-0.0116473 3.53715 0.0225458 3.43078 0.0947314 3.34719C0.166917 3.26361 0.269496 3.21802 0.379674 3.21802H18.6198C18.73 3.21802 18.8326 3.26361 18.9048 3.34719C18.977 3.43078 19.0111 3.53715 18.996 3.64733L15.3867 29.8203C15.3601 30.0103 15.2005 30.1508 15.0105 30.1508ZM4.32329 29.391H14.68L18.1867 3.97787H0.816587L4.32329 29.391Z" fill="black"/>
<path d="M13.7117 37.9923H5.29255C4.36553 37.9885 3.61708 37.2401 3.61328 36.3131V29.7708C3.61328 29.5618 3.78425 29.3909 3.99321 29.3909H15.011C15.22 29.3909 15.3909 29.5618 15.3909 29.7708V36.3131C15.3871 37.2401 14.6387 37.9885 13.7117 37.9923ZM4.37313 30.1507V36.3131C4.37693 36.8184 4.78725 37.2287 5.29255 37.2325H13.7117C14.217 37.2287 14.6273 36.8184 14.6311 36.3131V30.1507H4.37313Z" fill="black"/>
<path d="M15.011 35.086H3.99321C3.78425 35.086 3.61328 34.9151 3.61328 34.7061C3.61328 34.4971 3.78425 34.3262 3.99321 34.3262H15.011C15.22 34.3262 15.3909 34.4971 15.3909 34.7061C15.3909 34.9151 15.22 35.086 15.011 35.086Z" fill="black"/>
<path d="M11.8049 35.086H7.20024C6.99128 35.086 6.82031 34.915 6.82031 34.7061V33.0078C6.82031 32.4493 7.27622 31.9934 7.83471 31.9934H11.1704C11.7289 31.9934 12.1848 32.4493 12.1848 33.0078V34.7061C12.1848 34.915 12.0139 35.086 11.8049 35.086ZM7.58016 34.3261H11.425V33.0078C11.425 32.8672 11.311 32.7533 11.1704 32.7533H7.83471C7.69414 32.7533 7.58016 32.8672 7.58016 33.0078V34.3261Z" fill="black"/>
<path d="M9.50055 18.6923C7.52114 18.6923 5.91406 17.0852 5.91406 15.1058C5.91406 13.1264 7.52114 11.5193 9.50055 11.5193C11.4799 11.5193 13.087 13.1264 13.087 15.1058C13.0832 17.0852 11.4799 18.6885 9.50055 18.6923ZM9.50055 12.2829C7.93906 12.2829 6.67391 13.5481 6.67391 15.1096C6.67391 16.6711 7.93906 17.9362 9.50055 17.9362C11.062 17.9362 12.3272 16.6711 12.3272 15.1096V15.1058C12.3234 13.5443 11.0582 12.2829 9.50055 12.2829Z" fill="black"/>
<path d="M9.50102 10.6646C9.29206 10.6646 9.12109 10.4936 9.12109 10.2847V9.55522C9.12109 9.34626 9.29206 9.17529 9.50102 9.17529C9.70998 9.17529 9.88094 9.34626 9.88094 9.55522V10.2847C9.88094 10.4936 9.70998 10.6646 9.50102 10.6646Z" fill="black"/>
<path d="M9.50102 21.0403C9.29206 21.0403 9.12109 20.8694 9.12109 20.6604V19.931C9.12109 19.722 9.29206 19.551 9.50102 19.551C9.70998 19.551 9.88094 19.722 9.88094 19.931V20.6604C9.88094 20.8694 9.70998 21.0403 9.50102 21.0403Z" fill="black"/>
<path d="M12.9228 12.0777C12.7138 12.0777 12.5429 11.9105 12.5391 11.7015C12.5391 11.5989 12.5809 11.5002 12.653 11.428L13.1697 10.9151C13.3179 10.7669 13.5573 10.7669 13.7054 10.9151C13.8536 11.0633 13.8536 11.3026 13.7054 11.4508L13.1925 11.9637C13.1203 12.0359 13.0254 12.0777 12.9228 12.0777Z" fill="black"/>
<path d="M5.57562 19.4141C5.36666 19.4065 5.2033 19.2318 5.2071 19.0228C5.2109 18.924 5.24889 18.8328 5.32107 18.7645L5.81877 18.2364C5.96694 18.0882 6.2063 18.0882 6.35447 18.2326C6.35447 18.2326 6.35447 18.2326 6.35827 18.2364C6.50644 18.3845 6.50644 18.6239 6.35827 18.7721L5.84157 19.3002C5.76938 19.3723 5.6744 19.4141 5.57562 19.4141Z" fill="black"/>
<path d="M15.0509 15.4857H14.3252C14.1163 15.4857 13.9453 15.3147 13.9453 15.1058C13.9453 14.8968 14.1163 14.7258 14.3252 14.7258H15.0509C15.2599 14.7258 15.4308 14.8968 15.4308 15.1058C15.4308 15.3147 15.2599 15.4857 15.0509 15.4857Z" fill="black"/>
<path d="M4.67589 15.4857H3.95024C3.74128 15.4857 3.57031 15.3147 3.57031 15.1058C3.57031 14.8968 3.74128 14.7258 3.95024 14.7258H4.67589C4.88485 14.7258 5.05582 14.8968 5.05582 15.1058C5.05582 15.3147 4.88485 15.4857 4.67589 15.4857Z" fill="black"/>
<path d="M13.425 19.4141C13.3262 19.4141 13.2275 19.3723 13.1591 19.3001L12.6424 18.7872C12.4942 18.639 12.4942 18.3997 12.6424 18.2515C12.7905 18.1033 13.0299 18.1033 13.1781 18.2477C13.1781 18.2477 13.1781 18.2477 13.1819 18.2515L13.6796 18.7644C13.8277 18.9126 13.8277 19.1519 13.6796 19.3001C13.6112 19.3685 13.52 19.4103 13.425 19.4141Z" fill="black"/>
<path d="M6.08191 12.0777C5.97934 12.0777 5.88435 12.0359 5.81217 11.9637L5.32207 11.4508C5.17389 11.3026 5.17389 11.0633 5.32207 10.9151C5.47024 10.7669 5.70959 10.7669 5.85776 10.9151L6.37446 11.428C6.52263 11.5762 6.52643 11.8155 6.37826 11.9637C6.29847 12.0435 6.19209 12.0853 6.08191 12.0777Z" fill="black"/>
</g>
<defs>
<clipPath id="clip0">
<rect width="19" height="37.9924" fill="white"/>
</clipPath>
</defs>
</svg>
