<svg width="35" height="31" viewBox="0 0 35 31" fill="none" xmlns="http://www.w3.org/2000/svg">
<g clip-path="url(#clip0)">
<path d="M24.3324 0.00170898C24.1258 0.00170898 23.9742 0.167048 23.9742 0.373741V0.649327C23.9742 0.85602 24.1395 1.00761 24.3462 1.00761C24.5391 1.00761 24.7045 0.842241 24.7045 0.649327V0.373741C24.7045 0.167048 24.5391 0.00170898 24.3324 0.00170898ZM23.2439 1.09028C23.0372 1.09028 22.8718 1.25563 22.8718 1.44854C22.8718 1.65524 23.0372 1.8206 23.2301 1.8206H23.5057C23.7124 1.8206 23.8777 1.65525 23.8777 1.46234C23.8777 1.25564 23.7124 1.09028 23.5195 1.09028H23.2439ZM25.1454 1.09028C24.9388 1.09028 24.7734 1.25563 24.7734 1.44854C24.7734 1.65524 24.9387 1.8206 25.1317 1.8206H25.4073C25.614 1.8206 25.7793 1.65525 25.7793 1.46234C25.7793 1.25564 25.6139 1.09028 25.421 1.09028H25.1454ZM24.3324 1.90327C24.1258 1.90327 23.9742 2.06863 23.9742 2.27532V2.55091C23.9742 2.7576 24.1395 2.90919 24.3462 2.90919C24.5391 2.90919 24.7045 2.74382 24.7045 2.55091V2.27532C24.7045 2.06863 24.5391 1.90327 24.3324 1.90327ZM10.8699 4.30091C9.50568 4.28714 8.15528 4.53517 6.87379 5.05879C2.89151 6.58832 0.0529184 10.6119 0.0115798 14.8836C-0.153774 19.0726 2.36789 23.1651 6.15726 24.9426C6.17104 24.9426 6.18481 24.9564 6.18481 24.9564V26.4859C6.18481 27.1749 6.63954 27.7812 7.32852 28.2635C8.01749 28.7596 8.98205 29.173 10.1533 29.5312C12.4958 30.234 15.6927 30.6612 19.2202 30.6612C22.7478 30.6612 25.9447 30.234 28.2734 29.5312C29.4447 29.173 30.3954 28.7596 31.0982 28.2635C31.7872 27.7812 32.2419 27.1887 32.2419 26.4997V26.4859V25.2596L34.8187 23.7576C34.9289 23.6887 34.9978 23.5785 34.9978 23.4407V20.2438C34.9978 20.1198 34.9289 19.9958 34.8187 19.9269L32.2419 18.4249V15.7104C32.2419 15.6552 32.2281 15.6139 32.2143 15.5588C32.2281 15.4623 32.2419 15.3659 32.2419 15.2556C32.2419 14.5667 31.801 13.9741 31.112 13.4919C31.1671 13.2989 31.1947 13.106 31.1947 12.9131C31.1947 11.6867 30.2163 10.6946 29.0037 10.6533C29.3344 10.1297 29.5136 9.50958 29.5136 8.84816C29.5136 7.16706 28.2872 5.73398 26.6336 5.45839C26.6061 5.45839 26.5785 5.45839 26.5647 5.45839C26.358 5.47217 26.2065 5.63753 26.2202 5.83044C26.2202 5.858 26.2202 5.88556 26.234 5.91312C26.2891 6.13359 26.3167 6.35406 26.3167 6.57453C26.3167 8.0765 25.1041 9.27532 23.6021 9.27532C23.423 9.27532 22.734 9.27532 22.734 9.27532H20.86C20.5844 9.27532 20.3088 9.33044 20.0608 9.44067C19.6061 8.69658 19.0549 8.02139 18.421 7.40131C16.5746 5.54107 14.0391 4.48005 11.4486 4.32848C11.2557 4.3147 11.0628 4.31469 10.8699 4.30091ZM10.6769 5.045C13.3364 5.01744 16.0234 6.02336 17.9112 7.92494C18.5037 8.50368 19.0135 9.15131 19.4545 9.84029C19.1513 10.1434 18.9722 10.5292 18.9722 10.984C18.9722 11.0253 18.9722 11.0667 18.9722 11.0942C18.4486 11.0942 17.925 11.108 17.4151 11.1355C17.4014 11.1218 17.4013 11.108 17.3876 11.0942C17.1533 10.7911 16.8915 10.5155 16.6297 10.2537C15.0726 8.69657 12.9506 7.80091 10.7872 7.67689C9.4919 7.59422 8.16906 7.80091 6.95646 8.29697C3.62182 9.57847 1.25175 12.9407 1.21041 16.5233C1.18285 17.295 1.25174 18.0529 1.43087 18.7832C0.948586 17.5568 0.71434 16.234 0.769458 14.9111C0.810797 10.9564 3.47024 7.16705 7.16316 5.76154C8.26552 5.27926 9.47812 5.045 10.6769 5.045ZM33.5372 5.74777C33.3305 5.74777 33.1789 5.91311 33.1789 6.1198V6.39541C33.1789 6.6021 33.3305 6.76744 33.5372 6.76744C33.7439 6.76744 33.9092 6.61587 33.9092 6.40918C33.9092 6.3954 33.9092 6.3954 33.9092 6.38162V6.10603C33.9092 5.91312 33.7439 5.74777 33.5372 5.74777ZM27.0195 6.35407C28.0667 6.7399 28.797 7.70446 28.797 8.84816C28.797 9.59226 28.4939 10.2675 27.9978 10.7635C27.9978 10.7635 27.9978 10.7635 27.984 10.7773C27.8462 10.9151 27.8462 11.1493 27.984 11.2871C28.0667 11.3698 28.1907 11.4111 28.3147 11.3836H28.921C29.7754 11.3836 30.4506 12.0588 30.4506 12.9269C30.4506 13.7812 29.7754 14.4702 28.921 14.4702C28.7143 14.4564 28.549 14.6218 28.549 14.8147C28.5352 15.0214 28.7006 15.1867 28.8935 15.1867C28.9073 15.1867 28.9073 15.1867 28.921 15.1867C29.7065 15.1867 30.3954 14.7871 30.795 14.1808C31.2911 14.5667 31.4978 14.9387 31.4978 15.2694C31.4978 15.6277 31.2498 16.0411 30.6573 16.4544C30.0647 16.8816 29.1691 17.2812 28.0529 17.6119C25.8069 18.2871 22.6651 18.7143 19.2065 18.7143C15.734 18.7143 12.6061 18.2871 10.36 17.6119C9.24387 17.2675 8.3482 16.8678 7.75568 16.4544C7.16316 16.0273 6.91513 15.6277 6.91513 15.2694C6.91513 14.9111 7.16316 14.4978 7.75568 14.0844C8.3482 13.6572 9.24387 13.2576 10.36 12.9269C12.2616 12.3482 14.797 11.9623 17.6356 11.8521C17.36 12.1966 17.1947 12.6513 17.1947 13.1336C17.1947 14.2497 18.0903 15.2005 19.2065 15.2005C19.4132 15.2143 19.5785 15.049 19.5785 14.856C19.5923 14.6493 19.4269 14.484 19.234 14.484C19.2202 14.484 19.2203 14.484 19.2065 14.484C18.5037 14.484 17.925 13.8777 17.925 13.1474C17.925 12.4171 18.4899 11.8383 19.2065 11.8383C19.5372 12.3619 20.1573 12.6926 20.8462 12.6926C21.0529 12.6926 21.2183 12.5273 21.2183 12.3344C21.2183 12.1277 21.0529 11.9623 20.86 11.9623C20.1848 11.9623 19.7025 11.5076 19.7025 10.984C19.7025 10.4604 20.1848 10.0056 20.86 10.0056H22.734C22.734 10.0056 23.4368 10.0056 23.6021 10.0056C25.5037 10.0056 27.047 8.46232 27.047 6.57453C27.0332 6.49185 27.0195 6.42297 27.0195 6.35407ZM32.4486 6.83634C32.2419 6.83634 32.0903 7.00169 32.0903 7.1946C32.0903 7.38752 32.2557 7.55288 32.4486 7.55288H32.7242C32.9309 7.55288 33.0825 7.38752 33.0825 7.1946C33.0825 7.00169 32.9171 6.83634 32.7242 6.83634H32.4486ZM34.364 6.83634C34.1573 6.83634 34.0057 7.00169 34.0057 7.1946C34.0057 7.38752 34.171 7.55288 34.364 7.55288H34.6395C34.8462 7.55288 34.9978 7.38752 34.9978 7.1946C34.9978 7.00169 34.8325 6.83634 34.6395 6.83634H34.364ZM33.5372 7.64933C33.3305 7.64933 33.1789 7.81469 33.1789 8.02138V8.29697C33.1789 8.50366 33.3305 8.66902 33.5372 8.66902C33.7439 8.66902 33.9092 8.51746 33.9092 8.31076C33.9092 8.29698 33.9092 8.29698 33.9092 8.2832V8.00761C33.9092 7.8147 33.7439 7.64933 33.5372 7.64933ZM10.1258 8.37964C12.3305 8.35208 14.5352 9.19264 16.0923 10.7497C16.2301 10.8875 16.3679 11.0253 16.4919 11.1631C14.0529 11.3285 11.862 11.6867 10.1395 12.2104C8.96828 12.5686 8.01749 12.982 7.31473 13.4781C6.62576 13.9741 6.17103 14.5667 6.17103 15.2556C6.17103 15.3521 6.18482 15.4623 6.1986 15.5588C6.18482 15.6001 6.17103 15.6552 6.17103 15.7104V24.0332C3.52536 22.5726 1.78915 19.5548 1.89939 16.5233C1.94073 13.2576 4.13167 10.1297 7.19072 8.9584C8.14151 8.58635 9.13363 8.39342 10.1258 8.37964ZM11.9584 13.3816C11.9309 13.3816 11.8895 13.3816 11.862 13.3954C10.9525 13.5883 10.1947 13.8363 9.65726 14.1119C9.38167 14.2497 9.16119 14.4013 8.98205 14.5942C8.80292 14.7734 8.6789 15.0214 8.6789 15.2832C8.6789 15.545 8.80292 15.7793 8.98205 15.9722C9.16119 16.1513 9.38167 16.3167 9.65726 16.4544C10.2084 16.7438 10.9525 16.9781 11.862 17.171C12.7714 17.3639 13.86 17.5293 15.0588 17.6395C15.2655 17.6533 15.4309 17.5155 15.4584 17.3088C15.4722 17.1021 15.3344 16.9367 15.1277 16.9092C13.9565 16.7989 12.8954 16.6474 12.0273 16.4544C11.1454 16.2615 10.4427 16.0411 9.98797 15.8068C9.76749 15.6966 9.60214 15.5726 9.50568 15.4761C9.40923 15.3797 9.40923 15.3245 9.40923 15.297C9.40923 15.2556 9.42301 15.2143 9.50568 15.1178C9.58836 15.0214 9.75371 14.8974 9.98797 14.7871C10.4427 14.5529 11.1454 14.3324 12.0136 14.1395C12.2065 14.0982 12.3443 13.9052 12.3029 13.7123C12.2754 13.5194 12.1238 13.3954 11.9584 13.3816ZM31.5116 16.7163V18.4525L28.9624 19.9407C28.8521 20.0096 28.7832 20.1198 28.7832 20.2576V23.4544C28.7832 23.5785 28.8521 23.7025 28.9624 23.7714L31.5116 25.2596V26.4997C31.5116 26.858 31.2636 27.2714 30.671 27.6848C30.0785 28.1119 29.1828 28.5115 28.0667 28.8422C25.8206 29.5174 22.6789 29.9446 19.2202 29.9446C15.7616 29.9446 12.6199 29.5174 10.3738 28.8422C9.25765 28.4978 8.36198 28.0982 7.76946 27.6848C7.17694 27.2714 6.92891 26.858 6.92891 26.4997V24.1159C7.05292 24.2399 7.19072 24.3501 7.3423 24.4604C8.03127 24.9564 8.99584 25.3698 10.1671 25.7281C12.4821 26.4308 15.6376 26.858 19.1376 26.858C19.3305 26.9131 19.5372 26.8029 19.5923 26.61C19.6061 26.5686 19.6061 26.5411 19.6061 26.4997V26.4859V23.1238C19.6474 22.9446 19.5647 22.7517 19.3856 22.6828C19.3443 22.669 19.2891 22.6552 19.234 22.6552C19.2202 22.6552 19.1927 22.6552 19.1789 22.6552C15.734 22.6552 12.6199 22.2281 10.3876 21.5529C9.27143 21.2084 8.37576 20.8088 7.78324 20.3954C7.19072 19.9682 6.94269 19.5686 6.94269 19.2104V16.7301C7.06671 16.8541 7.2045 16.9643 7.35607 17.0745C8.04505 17.5706 9.00962 17.984 10.1809 18.3423C12.5234 19.045 15.7202 19.4722 19.2478 19.4722C22.7754 19.4722 25.9722 19.045 28.301 18.3423C29.4722 17.984 30.423 17.5706 31.1258 17.0745C31.2498 16.9505 31.3876 16.8403 31.5116 16.7163ZM31.8836 19.0863L34.2675 20.4781V23.2478L31.8836 24.6395L29.4998 23.2478V20.4781L31.8836 19.0863ZM32.0628 20.2714C31.2084 20.2714 30.5057 20.9879 30.5057 21.8422C30.5057 22.6966 31.2084 23.4131 32.0628 23.4131C32.4899 23.4131 32.8895 23.234 33.1651 22.9446C33.3029 22.793 33.3029 22.5726 33.1513 22.4348C33.0136 22.297 32.7793 22.297 32.6415 22.4348C32.4899 22.5864 32.2832 22.6828 32.0628 22.6828C31.608 22.6828 31.236 22.3108 31.236 21.8285C31.236 21.3462 31.608 20.9741 32.0628 20.9741C32.297 20.9741 32.4899 21.0706 32.6415 21.2222C32.7793 21.3737 33.0136 21.3737 33.1513 21.2359C33.3029 21.0981 33.3029 20.8639 33.1651 20.7261C32.8895 20.4505 32.4899 20.2714 32.0628 20.2714ZM6.91513 20.6434C7.03914 20.7675 7.17694 20.8777 7.32852 20.9879C8.01749 21.484 8.98205 21.8974 10.1533 22.2556C12.4132 22.9308 15.4722 23.358 18.8482 23.3855V26.1277C15.5273 26.1001 12.5234 25.6867 10.36 25.0253C9.24387 24.6808 8.3482 24.2812 7.75568 23.8678C7.16316 23.4407 6.91513 23.0411 6.91513 22.6828V20.6434Z" fill="black"/>
</g>
<defs>
<clipPath id="clip0">
<rect width="35" height="30.6732" fill="white"/>
</clipPath>
</defs>
</svg>
