<svg width="31" height="31" viewBox="0 0 31 31" fill="none" xmlns="http://www.w3.org/2000/svg">
<g clip-path="url(#clip0)">
<path d="M30.6797 16.6646L30.2355 15.337C30.1476 15.0684 29.8532 14.9186 29.5846 15.0116C29.5071 15.0374 29.4399 15.0787 29.3831 15.1356L28.2776 16.241C28.2673 16.2255 28.257 16.21 28.2415 16.1997L25.4829 13.0951C25.2815 12.8833 24.9457 12.8729 24.7287 13.0744C24.7235 13.0796 24.7132 13.0899 24.708 13.0951L21.9547 16.1997C21.9392 16.2152 21.9288 16.2307 21.9185 16.2462L20.813 15.1407C20.6116 14.9393 20.2861 14.9393 20.0847 15.1407C20.0278 15.1975 19.9865 15.2647 19.9607 15.3422L19.5164 16.6698C18.7674 18.8911 19.3459 21.3449 21.0093 22.9979C21.2883 23.2769 21.5982 23.53 21.9288 23.7521C21.9443 23.7625 21.9598 23.7676 21.9753 23.7728H18.9327C19.5061 22.1662 18.6744 20.3995 17.0678 19.8261C16.949 19.7848 16.825 19.7486 16.6959 19.7176C17.884 18.4882 17.8479 16.5252 16.6184 15.3422C16.0398 14.774 15.2701 14.464 14.4643 14.464H13.4311V9.81478C13.4311 8.95726 12.7389 8.26504 11.8814 8.26504H7.23213V7.22154C8.76637 7.1079 9.92351 5.76995 9.80986 4.23054C9.76337 3.65197 9.54124 3.09923 9.1693 2.65497L7.11331 0.185718C6.94801 -0.0105829 6.66905 -0.0570751 6.45209 0.07207L5.90452 0.397516C4.48908 1.25504 3.62123 2.78928 3.61606 4.44234C3.61606 5.90426 4.74221 7.11306 6.19897 7.22154V8.26504H1.54974C0.692218 8.26504 0 8.95726 0 9.81478V29.4448C0 30.3024 0.692218 30.9946 1.54974 30.9946H17.5637C19.2736 30.9946 20.6632 29.605 20.6632 27.8951H24.2793C25.705 27.8951 26.8622 29.0522 26.8622 30.478C26.8622 30.7621 27.0946 30.9946 27.3788 30.9946H30.4783C30.7624 30.9946 30.9948 30.7621 30.9948 30.478V25.3122C30.9948 24.4547 30.3026 23.7625 29.4451 23.7625H28.226C28.5721 23.5352 28.8923 23.2769 29.1868 22.9876C30.8502 21.3345 31.4288 18.8808 30.6797 16.6646ZM22.7244 16.8764L25.0955 14.2057L27.4718 16.8816C27.4976 16.9074 27.5182 16.9384 27.5441 16.9694L25.0955 19.418L22.6521 16.9746C22.6779 16.9384 22.6985 16.9074 22.7244 16.8764ZM21.7377 22.254C20.3533 20.8799 19.8729 18.8343 20.4927 16.9849L20.6736 16.4477L24.3671 20.1464L22.0115 22.502C21.9133 22.4193 21.8204 22.3419 21.7377 22.254ZM18.0803 22.7293C18.0803 23.8709 17.1556 24.7956 16.014 24.7956H11.3648C10.2231 24.7956 9.29845 23.8709 9.29845 22.7293C9.29845 21.5876 10.2231 20.663 11.3648 20.663H16.014C17.1556 20.663 18.0803 21.5876 18.0803 22.7293ZM14.4643 15.4972C15.6059 15.4972 16.5306 16.4218 16.5306 17.5635C16.5306 18.7051 15.6059 19.6298 14.4643 19.6298H12.9145C11.7729 19.6298 10.8482 18.7051 10.8482 17.5635C10.8482 16.4218 11.7729 15.4972 12.9145 15.4972H14.4643ZM4.64922 4.44234C4.65439 3.15089 5.33111 1.95759 6.43143 1.2912L6.6019 1.18788L8.37377 3.3162C8.99367 4.06007 8.89552 5.16555 8.15164 5.78545C7.88818 6.00241 7.57307 6.14189 7.23213 6.17805V3.61581C7.23213 3.33169 6.99967 3.09923 6.71555 3.09923C6.43143 3.09923 6.19897 3.33169 6.19897 3.61581V6.17805C5.32078 6.07474 4.65439 5.33086 4.64922 4.44234ZM1.03316 9.81478C1.03316 9.53066 1.26562 9.2982 1.54974 9.2982H11.8814C12.1655 9.2982 12.3979 9.53066 12.3979 9.81478V10.3314H8.78187C8.49775 10.3314 8.26529 10.5638 8.26529 10.8479V15.4972C8.26529 16.0654 7.80553 16.5303 7.23213 16.5303C7.21146 16.5303 7.19597 16.5303 7.1753 16.5303C6.60707 16.4683 6.18347 15.9828 6.19897 15.4093V12.9143C6.19897 12.6301 5.96651 12.3977 5.68239 12.3977C5.39827 12.3977 5.16581 12.6301 5.16581 12.9143C5.16581 13.4825 4.70605 13.9474 4.13264 13.9474C4.11198 13.9474 4.09648 13.9474 4.07582 13.9474C3.50758 13.8854 3.08399 13.3998 3.09948 12.8264V10.8479C3.09948 10.5638 2.86702 10.3314 2.5829 10.3314H1.03316V9.81478ZM1.54974 29.9614C1.26562 29.9614 1.03316 29.729 1.03316 29.4448V11.3645H2.06632V12.8264C2.04049 13.9474 2.90318 14.8928 4.02416 14.9754C4.42193 14.9961 4.8197 14.9031 5.16581 14.7016V15.4042C5.13998 16.5252 6.00267 17.4705 7.12365 17.5532C7.15981 17.5532 7.20113 17.5583 7.23729 17.5583C7.76421 17.5583 8.27562 17.3569 8.65789 16.9901C9.06599 16.6026 9.29845 16.0654 9.29845 15.4972V11.3645H12.3979V14.5105C10.7139 14.7894 9.5774 16.3857 9.85636 18.0697C9.95967 18.6845 10.249 19.2579 10.6829 19.7073C9.01433 20.0792 7.96567 21.7375 8.34278 23.4008C8.46675 23.9536 8.74054 24.465 9.13314 24.8731C7.46459 25.245 6.41593 26.8981 6.79303 28.5667C6.90668 29.0884 7.15981 29.5688 7.51625 29.9614H1.54974ZM17.5637 29.9614H9.81503C8.67339 29.9614 7.74871 29.0367 7.74871 27.8951C7.74871 26.7535 8.67339 25.8288 9.81503 25.8288H17.5637C18.7054 25.8288 19.6301 26.7535 19.6301 27.8951C19.6301 29.0367 18.7054 29.9614 17.5637 29.9614ZM29.4451 24.7956C29.7292 24.7956 29.9617 25.0281 29.9617 25.3122V25.8288H28.9285V26.8619H29.9617V29.9614H27.8592C27.6009 28.1844 26.077 26.8619 24.2793 26.8619H20.4824C20.126 25.8598 19.284 25.1107 18.2456 24.8731C18.2715 24.8473 18.2921 24.8214 18.3179 24.7956H29.4451ZM26.5781 23.4422C26.0667 23.6281 25.5242 23.7366 24.9767 23.7521C24.6202 23.7418 24.269 23.6746 23.928 23.561C23.5716 23.437 23.2306 23.2614 22.931 23.0341L25.4623 20.5028L29.5174 16.4477L29.6982 16.9849C30.5867 19.6298 29.2023 22.4968 26.5781 23.4422Z" fill="black"/>
<path d="M17.0488 10.8481H16.0156V11.8813H17.0488V10.8481Z" fill="black"/>
<path d="M17.0488 7.74878H16.0156V8.78194H17.0488V7.74878Z" fill="black"/>
<path d="M18.5957 9.29834H17.5625V10.3315H18.5957V9.29834Z" fill="black"/>
<path d="M15.498 9.29858H14.4648V10.3317H15.498V9.29858Z" fill="black"/>
<path d="M13.9472 4.13257H12.9141V5.16573H13.9472V4.13257Z" fill="black"/>
<path d="M13.9472 0H12.9141V1.03316H13.9472V0Z" fill="black"/>
<path d="M16.0136 2.06616H14.9805V3.09932H16.0136V2.06616Z" fill="black"/>
<path d="M11.8808 2.06616H10.8477V3.09932H11.8808V2.06616Z" fill="black"/>
<path d="M3.09957 26.8621H2.06641V27.8952H3.09957V26.8621Z" fill="black"/>
<path d="M3.09957 23.7627H2.06641V25.829H3.09957V23.7627Z" fill="black"/>
<path d="M3.09957 21.6963H2.06641V22.7295H3.09957V21.6963Z" fill="black"/>
<path d="M25.3105 10.9722C25.3105 10.4608 25.5998 9.9907 26.0596 9.7634C26.8706 9.36047 27.382 8.53394 27.3769 7.62476V6.71558H26.3437V7.62476C26.3437 8.13617 26.0544 8.60626 25.5947 8.83356C24.7836 9.23649 24.2722 10.063 24.2774 10.967V11.8814H25.3105V10.9722Z" fill="black"/>
<path d="M28.9277 12.0054C28.9277 11.494 29.217 11.0239 29.6768 10.7966C30.4878 10.3937 30.9992 9.56714 30.994 8.65796V7.74878H29.9609V8.65796C29.9609 9.16938 29.6716 9.63946 29.2118 9.86676C28.4008 10.2697 27.8894 11.0962 27.8946 12.0002V12.9146H28.9277V12.0054Z" fill="black"/>
<path d="M21.1777 12.0052C21.1777 11.4937 21.467 11.0237 21.9268 10.7964C22.7378 10.3934 23.2492 9.5669 23.2441 8.65772V7.74854H22.2109V8.65772C22.2109 9.16913 21.9216 9.63922 21.4619 9.86652C20.6508 10.2694 20.1394 11.096 20.1446 12V12.9143H21.1777V12.0052Z" fill="black"/>
<path d="M23.248 5.68237H22.2148V6.71553H23.248V5.68237Z" fill="black"/>
<path d="M27.3769 4.64917H26.3438V5.68233H27.3769V4.64917Z" fill="black"/>
<path d="M30.9941 5.68237H29.9609V6.71553H30.9941V5.68237Z" fill="black"/>
<path d="M27.8964 25.8291H26.8633V26.8623H27.8964V25.8291Z" fill="black"/>
</g>
<defs>
<clipPath id="clip0">
<rect width="31" height="30.9948" fill="white"/>
</clipPath>
</defs>
</svg>
