<svg width="31" height="31" viewBox="0 0 31 31" fill="none" xmlns="http://www.w3.org/2000/svg">
<g clip-path="url(#clip0)">
<path d="M25.3763 18C25.2663 18 25.1663 17.925 25.1363 17.815C24.6763 16.16 23.7913 14.645 22.5713 13.425C22.4762 13.33 22.4762 13.17 22.5713 13.07C22.6663 12.97 22.8262 12.975 22.9262 13.07C24.2063 14.35 25.1413 15.945 25.6213 17.68C25.6563 17.815 25.5813 17.95 25.4463 17.99C25.4213 17.995 25.4013 18 25.3763 18Z" fill="black"/>
<path d="M5.62357 18C5.60357 18 5.57857 17.995 5.55857 17.99C5.42357 17.955 5.34857 17.815 5.38357 17.68C5.86857 15.945 6.79857 14.35 8.07857 13.07C8.17357 12.975 8.33357 12.975 8.43357 13.07C8.53357 13.165 8.52857 13.325 8.43357 13.425C7.21357 14.645 6.32357 16.165 5.86857 17.815C5.83357 17.925 5.73357 18 5.62357 18Z" fill="black"/>
<path d="M15.4997 30.9999C10.7997 30.9999 6.63966 27.8399 5.37966 23.3149C5.34466 23.1799 5.41966 23.0449 5.55466 23.0049C5.68966 22.9699 5.82466 23.0449 5.86466 23.1799C7.05966 27.4899 11.0247 30.4999 15.4997 30.4999C19.9747 30.4999 23.9397 27.4899 25.1347 23.1849C25.1697 23.0499 25.3097 22.9749 25.4447 23.0099C25.5797 23.0449 25.6547 23.1849 25.6197 23.3199C24.3597 27.8399 20.1997 30.9999 15.4997 30.9999Z" fill="black"/>
<path d="M27.25 23.5H3.75C3.61 23.5 3.5 23.39 3.5 23.25V17.75C3.5 17.61 3.61 17.5 3.75 17.5H13.75C13.89 17.5 14 17.61 14 17.75C14 17.89 13.89 18 13.75 18H4V23H27V18H20.25C20.11 18 20 17.89 20 17.75C20 17.61 20.11 17.5 20.25 17.5H27.25C27.39 17.5 27.5 17.61 27.5 17.75V23.25C27.5 23.39 27.39 23.5 27.25 23.5Z" fill="black"/>
<path d="M30.75 25H26.25C26.11 25 26 24.89 26 24.75V23.25C26 23.11 26.11 23 26.25 23C26.39 23 26.5 23.11 26.5 23.25V24.5H30.205L28.185 22.165C28.105 22.07 28.105 21.93 28.185 21.84L30.205 19.5H27.25C27.11 19.5 27 19.39 27 19.25C27 19.11 27.11 19 27.25 19H30.75C30.85 19 30.935 19.055 30.98 19.145C31.025 19.235 31.005 19.34 30.94 19.41L28.705 22L30.94 24.585C31.005 24.66 31.02 24.765 30.98 24.85C30.94 24.935 30.85 25 30.75 25Z" fill="black"/>
<path d="M4.75036 25H0.250363C0.150363 25 0.065363 24.945 0.020363 24.855C-0.024637 24.765 -0.00463698 24.66 0.060363 24.59L2.29536 22L0.060363 19.415C-0.00463698 19.34 -0.019637 19.235 0.020363 19.15C0.060363 19.065 0.150363 19 0.250363 19H3.75036C3.89036 19 4.00036 19.11 4.00036 19.25C4.00036 19.39 3.89036 19.5 3.75036 19.5H0.795363L2.81536 21.835C2.89536 21.93 2.89536 22.07 2.81536 22.16L0.795363 24.5H4.50036V23.25C4.50036 23.11 4.61036 23 4.75036 23C4.89036 23 5.00036 23.11 5.00036 23.25V24.75C5.00036 24.89 4.89036 25 4.75036 25Z" fill="black"/>
<path d="M15.5008 28.4999C12.1958 28.4999 9.19076 26.4249 8.02076 23.3399C7.97076 23.2099 8.03576 23.0649 8.16576 23.0149C8.29576 22.9649 8.44076 23.0299 8.49076 23.1599C9.58576 26.0549 12.4058 27.9999 15.5008 27.9999C18.5958 27.9999 21.4158 26.0549 22.5158 23.1599C22.5658 23.0299 22.7108 22.9699 22.8408 23.0149C22.9708 23.0649 23.0358 23.2099 22.9858 23.3399C21.8108 26.4249 18.8058 28.4999 15.5008 28.4999Z" fill="black"/>
<path d="M22.749 17.9999C22.649 17.9999 22.554 17.9399 22.514 17.8399C21.754 15.8349 20.164 14.2449 18.154 13.4849C18.024 13.4349 17.959 13.2899 18.009 13.1599C18.059 13.0299 18.204 12.9649 18.334 13.0149C20.474 13.8249 22.169 15.5199 22.984 17.6599C23.034 17.7899 22.969 17.9349 22.839 17.9849C22.809 17.9949 22.779 17.9999 22.749 17.9999Z" fill="black"/>
<path d="M8.25186 18.0001C8.22186 18.0001 8.19186 17.9951 8.16186 17.9851C8.03186 17.9351 7.96686 17.7901 8.01686 17.6601C8.83186 15.5201 10.5219 13.8251 12.6669 13.0151C12.7969 12.9701 12.9419 13.0301 12.9919 13.1601C13.0419 13.2901 12.9769 13.4351 12.8469 13.4851C10.8419 14.2451 9.25186 15.8301 8.48686 17.8401C8.45186 17.9401 8.35686 18.0001 8.25186 18.0001Z" fill="black"/>
<path d="M18.75 18H16.25C16.11 18 16 17.89 16 17.75C16 17.61 16.11 17.5 16.25 17.5H18.75C18.89 17.5 19 17.61 19 17.75C19 17.89 18.89 18 18.75 18Z" fill="black"/>
<path d="M16.4391 22.0001C16.3891 22.0001 16.3441 21.9851 16.2991 21.9601L15.4991 21.4251L14.6991 21.9551C14.6091 22.0151 14.4941 22.0101 14.4091 21.9451C14.3241 21.8801 14.2891 21.7701 14.3241 21.6651L14.5891 20.8751L14.0741 20.3601C14.0041 20.2901 13.9791 20.1801 14.0191 20.0901C14.0591 19.9951 14.1491 19.9351 14.2491 19.9351H15.0041L15.2591 19.1701C15.3291 18.9651 15.6641 18.9651 15.7341 19.1701L15.9891 19.9351H16.7491C16.8491 19.9351 16.9391 19.9951 16.9791 20.0901C17.0191 20.1851 16.9941 20.2901 16.9241 20.3601L16.4091 20.8751L16.6741 21.6651C16.7091 21.7651 16.6741 21.8801 16.5891 21.9451C16.5441 21.9801 16.4891 22.0001 16.4391 22.0001ZM15.4991 20.8751C15.5491 20.8751 15.5941 20.8901 15.6391 20.9151L15.9691 21.1351L15.8891 20.8901C15.8591 20.8001 15.8841 20.7001 15.9491 20.6351L16.1491 20.4351H15.8141C15.7041 20.4351 15.6091 20.3651 15.5791 20.2651L15.4991 20.0401L15.4241 20.2651C15.3891 20.3651 15.2941 20.4351 15.1891 20.4351H14.8541L15.0541 20.6351C15.1191 20.7001 15.1441 20.8001 15.1141 20.8901L15.0341 21.1351L15.3641 20.9151C15.4041 20.8851 15.4541 20.8751 15.4991 20.8751Z" fill="black"/>
<path d="M11.9391 22.0001C11.8891 22.0001 11.8441 21.9851 11.7991 21.9601L10.9991 21.4251L10.1991 21.9551C10.1091 22.0151 9.99409 22.0101 9.90909 21.9451C9.82409 21.8801 9.78909 21.7701 9.82409 21.6651L10.0891 20.8751L9.57409 20.3601C9.50409 20.2901 9.47909 20.1801 9.51909 20.0901C9.55909 19.9951 9.64909 19.9351 9.74909 19.9351H10.5041L10.7591 19.1701C10.8291 18.9651 11.1641 18.9651 11.2341 19.1701L11.4891 19.9351H12.2441C12.3441 19.9351 12.4391 19.9951 12.4741 20.0901C12.5141 20.1851 12.4891 20.2901 12.4191 20.3601L11.9041 20.8751L12.1691 21.6651C12.2041 21.7651 12.1691 21.8801 12.0841 21.9451C12.0441 21.9801 11.9891 22.0001 11.9391 22.0001ZM10.9991 20.8751C11.0491 20.8751 11.0941 20.8901 11.1391 20.9151L11.4691 21.1351L11.3891 20.8901C11.3591 20.8001 11.3841 20.7001 11.4491 20.6351L11.6491 20.4351H11.3141C11.2041 20.4351 11.1091 20.3651 11.0791 20.2651L10.9991 20.0401L10.9241 20.2651C10.8891 20.3651 10.7941 20.4351 10.6891 20.4351H10.3541L10.5541 20.6351C10.6191 20.7001 10.6441 20.8001 10.6141 20.8901L10.5341 21.1351L10.8641 20.9151C10.9041 20.8851 10.9541 20.8751 10.9991 20.8751Z" fill="black"/>
<path d="M7.43909 22.0001C7.38909 22.0001 7.34409 21.9851 7.29909 21.9601L6.49909 21.4251L5.69909 21.9551C5.60909 22.0151 5.49409 22.0101 5.40909 21.9451C5.32409 21.8801 5.28909 21.7701 5.32409 21.6651L5.58909 20.8751L5.07409 20.3601C5.00409 20.2901 4.97909 20.1801 5.01909 20.0901C5.05909 19.9951 5.14909 19.9351 5.24909 19.9351H6.00909L6.26409 19.1701C6.33409 18.9651 6.66909 18.9651 6.73909 19.1701L6.99409 19.9351H7.74909C7.84909 19.9351 7.94409 19.9951 7.97909 20.0901C8.01909 20.1851 7.99409 20.2901 7.92409 20.3601L7.40909 20.8751L7.67409 21.6651C7.70909 21.7651 7.67409 21.8801 7.58909 21.9451C7.54409 21.9801 7.48909 22.0001 7.43909 22.0001ZM6.49909 20.8751C6.54909 20.8751 6.59409 20.8901 6.63909 20.9151L6.96909 21.1351L6.88909 20.8901C6.85909 20.8001 6.88409 20.7001 6.94909 20.6351L7.14909 20.4351H6.81409C6.70409 20.4351 6.60909 20.3651 6.57909 20.2651L6.49909 20.0401L6.42409 20.2651C6.38909 20.3651 6.29409 20.4351 6.18909 20.4351H5.85409L6.05409 20.6351C6.11909 20.7001 6.14409 20.8001 6.11409 20.8901L6.03409 21.1351L6.36409 20.9151C6.40409 20.8851 6.45409 20.8751 6.49909 20.8751Z" fill="black"/>
<path d="M20.9391 22.0001C20.8891 22.0001 20.8441 21.9851 20.7991 21.9601L19.9991 21.4251L19.1991 21.9551C19.1091 22.0151 18.9941 22.0101 18.9091 21.9451C18.8241 21.8801 18.7891 21.7701 18.8241 21.6651L19.0891 20.8751L18.5741 20.3601C18.5041 20.2901 18.4791 20.1801 18.5191 20.0901C18.5591 19.9951 18.6491 19.9351 18.7491 19.9351H19.5041L19.7591 19.1701C19.8291 18.9651 20.1641 18.9651 20.2341 19.1701L20.4891 19.9351H21.2441C21.3441 19.9351 21.4341 19.9951 21.4741 20.0901C21.5141 20.1851 21.4891 20.2901 21.4191 20.3601L20.9041 20.8751L21.1691 21.6651C21.2041 21.7651 21.1691 21.8801 21.0841 21.9451C21.0441 21.9801 20.9891 22.0001 20.9391 22.0001ZM19.9991 20.8751C20.0491 20.8751 20.0941 20.8901 20.1391 20.9151L20.4691 21.1351L20.3891 20.8901C20.3591 20.8001 20.3841 20.7001 20.4491 20.6351L20.6491 20.4351H20.3141C20.2041 20.4351 20.1091 20.3651 20.0791 20.2651L19.9991 20.0401L19.9241 20.2651C19.8891 20.3651 19.7941 20.4351 19.6891 20.4351H19.3541L19.5541 20.6351C19.6191 20.7001 19.6441 20.8001 19.6141 20.8901L19.5341 21.1351L19.8641 20.9151C19.9041 20.8851 19.9541 20.8751 19.9991 20.8751Z" fill="black"/>
<path d="M25.4391 22.0001C25.3891 22.0001 25.3441 21.9851 25.2991 21.9601L24.4991 21.4251L23.6991 21.9551C23.6091 22.0151 23.4941 22.0101 23.4091 21.9451C23.3241 21.8801 23.2891 21.7701 23.3241 21.6651L23.5891 20.8751L23.0741 20.3601C23.0041 20.2901 22.9791 20.1801 23.0191 20.0901C23.0591 19.9951 23.1491 19.9351 23.2491 19.9351H24.0041L24.2591 19.1701C24.3291 18.9651 24.6641 18.9651 24.7341 19.1701L24.9891 19.9351H25.7441C25.8441 19.9351 25.9341 19.9951 25.9741 20.0901C26.0141 20.1851 25.9891 20.2901 25.9191 20.3601L25.4041 20.8751L25.6691 21.6651C25.7041 21.7651 25.6691 21.8801 25.5841 21.9451C25.5441 21.9801 25.4891 22.0001 25.4391 22.0001ZM24.4991 20.8751C24.5491 20.8751 24.5941 20.8901 24.6391 20.9151L24.9691 21.1351L24.8891 20.8901C24.8591 20.8001 24.8841 20.7001 24.9491 20.6351L25.1491 20.4351H24.8141C24.7041 20.4351 24.6091 20.3651 24.5791 20.2651L24.4991 20.0401L24.4241 20.2651C24.3891 20.3651 24.2941 20.4351 24.1891 20.4351H23.8541L24.0541 20.6351C24.1191 20.7001 24.1441 20.8001 24.1141 20.8901L24.0341 21.1351L24.3641 20.9151C24.4041 20.8851 24.4541 20.8751 24.4991 20.8751Z" fill="black"/>
<path d="M15.5 4C14.395 4 13.5 3.105 13.5 2C13.5 0.895 14.395 0 15.5 0C16.605 0 17.5 0.895 17.5 2C17.5 3.105 16.605 4 15.5 4ZM15.5 0.5C14.675 0.5 14 1.175 14 2C14 2.825 14.675 3.5 15.5 3.5C16.325 3.5 17 2.825 17 2C17 1.175 16.325 0.5 15.5 0.5Z" fill="black"/>
<path d="M7.5 4C6.395 4 5.5 3.105 5.5 2C5.5 0.895 6.395 0 7.5 0C8.605 0 9.5 0.895 9.5 2C9.5 3.105 8.605 4 7.5 4ZM7.5 0.5C6.675 0.5 6 1.175 6 2C6 2.825 6.675 3.5 7.5 3.5C8.325 3.5 9 2.825 9 2C9 1.175 8.325 0.5 7.5 0.5Z" fill="black"/>
<path d="M23.5 4C22.395 4 21.5 3.105 21.5 2C21.5 0.895 22.395 0 23.5 0C24.605 0 25.5 0.895 25.5 2C25.5 3.105 24.605 4 23.5 4ZM23.5 0.5C22.675 0.5 22 1.175 22 2C22 2.825 22.675 3.5 23.5 3.5C24.325 3.5 25 2.825 25 2C25 1.175 24.325 0.5 23.5 0.5Z" fill="black"/>
<path d="M22.7485 13.5H8.2485C8.1185 13.5 8.0085 13.4 7.9985 13.275L7.1335 3.76996C7.1235 3.63496 7.2235 3.50996 7.3585 3.49996C7.4985 3.48996 7.6185 3.58996 7.6285 3.72496L8.4785 13H22.5235L23.3685 3.72496C23.3835 3.58996 23.4985 3.48996 23.6385 3.49996C23.7785 3.50996 23.8785 3.63496 23.8635 3.76996L22.9985 13.275C22.9885 13.4 22.8785 13.5 22.7485 13.5Z" fill="black"/>
<path d="M12.2516 8.49988C12.1716 8.49988 12.0916 8.45988 12.0466 8.38988L8.55664 3.35488C8.47664 3.23988 8.50664 3.08488 8.62164 3.00488C8.73664 2.92488 8.89164 2.95488 8.97164 3.06988L12.2116 7.74988L14.2566 3.31988C14.3166 3.19488 14.4616 3.13988 14.5866 3.19988C14.7116 3.25988 14.7666 3.40488 14.7116 3.52988L12.4816 8.35988C12.4416 8.43988 12.3666 8.49488 12.2766 8.50488C12.2666 8.49988 12.2566 8.49988 12.2516 8.49988Z" fill="black"/>
<path d="M18.7489 8.5C18.7439 8.5 18.7339 8.5 18.7289 8.5C18.6389 8.49 18.5639 8.435 18.5239 8.355L16.2939 3.525C16.2339 3.4 16.2889 3.25 16.4139 3.195C16.5389 3.14 16.6889 3.19 16.7439 3.315L18.7889 7.745L22.0289 3.065C22.1089 2.95 22.2639 2.92 22.3789 3C22.4939 3.08 22.5189 3.235 22.4439 3.35L18.9539 8.39C18.9089 8.46 18.8289 8.5 18.7489 8.5Z" fill="black"/>
</g>
<defs>
<clipPath id="clip0">
<rect width="31" height="31" fill="white"/>
</clipPath>
</defs>
</svg>
